<svg xmlns="http://www.w3.org/2000/svg" width="17.248" height="17.248" viewBox="0 0 17.248 17.248">
    <defs>
        <style>
            .cls-1{fill:#db3434;fill-rule:evenodd}
        </style>
    </defs>
    <path id="np_error_1582579_000000" d="M14.725 14.725a8.64 8.64 0 1 0-6.1 2.522 8.6 8.6 0 0 0 6.1-2.522zm-4.934-2.774a1.164 1.164 0 0 0-1.167-1.167 1.178 1.178 0 0 0-1.182 1.167 1.191 1.191 0 0 0 1.182 1.182 1.178 1.178 0 0 0 1.167-1.182zM8.624 9.6a.823.823 0 0 1-.788-.788L7.441 5.3a1.2 1.2 0 0 1 1.183-1.185A1.177 1.177 0 0 1 9.791 5.3l-.379 3.513a.823.823 0 0 1-.788.787z" class="cls-1"/>
</svg>
