<svg xmlns="http://www.w3.org/2000/svg" xmlns:xlink="http://www.w3.org/1999/xlink" width="36" height="48.834" viewBox="0 0 36 48.834">
  <defs>
    <filter id="Path_205" x="0" y="0" width="36" height="48.834" filterUnits="userSpaceOnUse">
      <feOffset input="SourceAlpha"/>
      <feGaussianBlur stdDeviation="1" result="blur"/>
      <feFlood flood-opacity="0.412"/>
      <feComposite operator="in" in2="blur"/>
      <feComposite in="SourceGraphic"/>
    </filter>
  </defs>
  <g id="Group_2490" data-name="Group 2490" transform="translate(3 3)">
    <g transform="matrix(1, 0, 0, 1, -3, -3)" filter="url(#Path_205)">
      <g id="Path_205-2" data-name="Path 205" transform="translate(-5.2 3)" fill="#f27e20" stroke-linecap="round" stroke-linejoin="round">
        <path d="M 23.20402717590332 41.07726669311523 L 12.00775337219238 24.9079704284668 L 11.99692344665527 24.89233016967773 L 11.98551368713379 24.87711906433105 C 9.988933563232422 22.21590995788574 8.988693237304688 18.51630973815918 9.241273880004883 14.7269401550293 C 9.493782997131348 10.93855953216553 10.97453308105469 7.430069923400879 13.30385303497314 5.101089954376221 C 15.94846343994141 2.456439733505249 19.46441268920898 0.9999997615814209 23.20407295227051 0.9999997615814209 C 26.94373321533203 0.9999997615814209 30.45968246459961 2.456439733505249 33.10424423217773 5.101029872894287 C 35.43451309204102 7.430969715118408 36.91442489624023 10.94034004211426 37.16458511352539 14.72933959960938 C 37.41498184204102 18.52207946777344 36.40901184082031 22.22965049743652 34.40461349487305 24.90139007568359 L 34.39319229125977 24.9166088104248 L 34.38236236572266 24.93224906921387 L 23.20402717590332 41.07726669311523 Z" stroke="none"/>
        <path d="M 23.20407485961914 2 C 19.73152542114258 2 16.46669578552246 3.352420806884766 14.01090621948242 5.808231353759766 C 11.8504638671875 7.968360900878906 10.47568511962891 11.24334907531738 10.23905563354492 14.7934398651123 C 10.00214385986328 18.34766960144043 10.93026351928711 21.80428886413574 12.78541564941406 24.2769889831543 C 12.80063629150391 24.29726982116699 12.81546401977539 24.31784057617188 12.82989501953125 24.33868026733398 L 23.2039909362793 39.32061004638672 L 33.56019592285156 24.36301040649414 C 33.57464599609375 24.34214973449707 33.5894775390625 24.32156944274902 33.60470581054688 24.30126953125 C 35.46781539916992 21.8178596496582 36.40164566040039 18.35304069519043 36.16674423217773 14.79521942138672 C 35.93234634399414 11.24472999572754 34.55840301513672 7.969100952148438 32.39712524414062 5.808128356933594 C 29.94144439697266 3.352420806884766 26.67662620544434 2 23.20407485961914 2 M 23.20407485961914 0 C 27.21074485778809 0 30.97805404663086 1.560600280761719 33.81134414672852 4.3939208984375 C 39.05475616455078 9.636589050292969 39.70636367797852 19.50082969665527 35.20453643798828 25.50149917602539 L 23.20407485961914 42.83391952514648 L 11.18561553955078 25.47724914550781 C 6.701766967773438 19.50082969665527 7.353374481201172 9.636589050292969 12.59679412841797 4.3939208984375 C 15.43008613586426 1.560600280761719 19.19661521911621 0 23.20407485961914 0 Z" stroke="none" fill="#fff"/>
      </g>
    </g>
    <g id="Ellipse_18" data-name="Ellipse 18" transform="translate(9.673 9.237)" fill="#fff" stroke="#fff" stroke-width="1">
      <ellipse cx="5.561" cy="5.562" rx="5.561" ry="5.562" stroke="none"/>
      <ellipse cx="5.561" cy="5.562" rx="5.061" ry="5.062" fill="none"/>
    </g>
  </g>
</svg>

